<svg version="1" xmlns="http://www.w3.org/2000/svg" width="1733.333" height="1733.333" viewBox="0 0 1300.000000 1300.000000"><path d="M21 651v476h822V811.2l56.8-.5c61.4-.4 71.5-1.1 107.7-7.3 129.2-22.3 216.9-95.6 249.9-209 10.1-34.9 14.8-71.3 14.9-114.9.1-60.9-9.8-107.4-32.4-151.5-19.6-38.5-50.4-72.3-87.9-96.5-19-12.2-49.8-26.3-74-33.8-32.5-10.1-56.5-14.7-102-19.9l-19.5-2.2-467.7-.3L21 175v476zm565-1.5V917H278V738h285V531H278V382h308v267.5zm355.4-264.1c10.5 2.1 18.6 4.5 18.6 5.5 0 .4 2.4 1.8 5.3 3.2 22.6 10.3 36.6 27.8 43.4 53.9 5.1 19.6 4.1 51.6-2.2 73.3-6.6 22.7-21.5 44.1-39.5 56.8-3.3 2.3-6.6 5.2-7.4 6.4-2.9 4.5-27.1 12.8-44.7 15.4-4.1.7-21.9 1.4-39.6 1.8l-32.3.6V382.8l45.3.5c35.7.4 46.9.8 53.1 2.1z"/></svg>